Inverse Dynamics Generalized Forces
version=1
nRows=5
nColumns=34
inDegrees=no
endheader 
time	pelvis_tilt_moment	pelvis_list_moment	pelvis_rotation_moment	pelvis_tx_force	pelvis_ty_force	pelvis_tz_force	hip_flexion_l_moment	hip_adduction_l_moment	hip_rotation_l_moment	hip_flexion_r_moment	hip_adduction_r_moment	hip_rotation_r_moment	knee_angle_l_moment	knee_angle_r_moment	ankle_angle_l_moment	ankle_angle_r_moment	subtalar_angle_l_moment	subtalar_angle_r_moment	mtp_angle_l_moment	mtp_angle_r_moment	lumbar_extension_moment	lumbar_bending_moment	lumbar_rotation_moment	arm_flex_l_moment	arm_add_l_moment	arm_rot_l_moment	arm_flex_r_moment	arm_add_r_moment	arm_rot_r_moment	elbow_flex_l_moment	elbow_flex_r_moment	pro_sup_l_moment	pro_sup_r_moment	
          5.20000000	         -0.00000113	         -0.00000115	          0.00000022	         -0.00000182	         -0.00000034	          0.00000238	         21.41368654	        -46.16083717	         19.52756888	         -5.62670892	        -15.85150061	          2.59513957	       -182.12192943	          8.70376330	       -141.46764307	         -0.55579596	         52.64497672	          0.08343808	         15.24567099	          0.05707835	        -38.50260937	        -14.25493623	          8.41831592	         37.42337815	         -6.76628693	        -47.70386980	          3.01491751	          1.61189817	        -17.99448264	         52.97103975	        -18.61306669	         -2.71922647	          0.48740669	
          5.21000000	          0.00000185	         -0.00000163	         -0.00000254	          0.00000338	          0.00000119	          0.00000083	          2.51028990	        -25.85647515	         18.13713196	        -11.42577146	        -19.39586748	          2.96866643	       -229.08610058	         13.68000568	       -161.82737989	         -0.73387167	         61.77097064	          0.12212829	         20.64116448	          0.06555627	        -17.02438064	         27.33368054	          4.66052817	         67.22354278	         32.21951209	        -64.36101313	        -41.02662457	         38.39964417	         16.67331362	         23.46237491	          6.42621161	         -1.16490109	          1.15520133	
          5.22000000	          0.00000229	         -0.00000050	         -0.00000090	          0.00000284	         -0.00000236	         -0.00000004	        -15.10181782	         -5.71118303	         16.24639250	         -8.09975341	        -30.33070418	          4.11773056	       -241.62614416	         10.21424232	       -156.69127734	         -0.06882145	         62.47813584	          0.05265308	         21.30277051	          0.01744802	         26.49923445	         82.17145266	         -8.61576095	         89.02941030	         58.78755573	        -10.89808969	        -45.43041417	         67.33058573	         43.65146094	         -3.79882804	         30.28839688	          2.15532515	          0.02478620	
          5.23000000	          0.00000108	          0.00000332	          0.00000409	          0.00000005	         -0.00000078	          0.00000402	        -35.79950700	          6.80861922	          6.38580947	          0.37585659	        -30.71042047	          1.51036137	       -224.73194625	         10.47981901	       -141.54849529	          0.94646856	         58.21134183	          0.00305374	         19.33744761	         -0.05410206	         49.16342314	         94.76624890	        -39.28476079	        104.10228347	          5.68205371	         28.40941716	        -19.76698370	         87.80721546	         41.21176133	         -1.33601556	         54.67472778	          1.41166316	         -0.11766465	
          5.24000000	         -0.00000054	          0.00000403	          0.00000259	         -0.00000058	          0.00000671	         -0.00000109	        -22.08789820	          4.01197342	          3.12648140	          4.97946165	        -39.35737003	          1.59268694	       -220.32155532	          7.40620207	       -122.85589934	          1.72096210	         51.48229601	         -0.28789353	         17.20788083	         -0.11002084	         46.44805854	         92.41380833	        -49.11877702	         82.54713023	        -34.51743341	         50.41814421	          1.02077205	         29.34435728	         -1.45145027	         37.21213559	         25.32613423	         -0.34585233	         -0.43232811	
